<svg width="16" height="16" viewBox="0 0 16 16" fill="none" xmlns="http://www.w3.org/2000/svg">
<path d="M8.92611 9.95851C9.62092 9.95851 10.104 9.26739 9.86522 8.61488L8.40941 4.63624C8.31352 4.40018 8.21393 4.11987 8.11066 3.7953V3.7953C8.02039 3.51159 7.59052 3.52208 7.50208 3.80636V3.80636C7.39881 4.13094 7.29922 4.41494 7.20333 4.65837L5.75767 8.61535C5.51931 9.26777 6.00234 9.95851 6.69694 9.95851H8.92611ZM15.0763 14.6344C15.334 15.2904 14.8504 16 14.1455 16H13.3112C13.053 16 12.8428 15.9373 12.6805 15.8119C12.5182 15.6791 12.3965 15.5168 12.3154 15.325L11.3606 12.7171C11.2163 12.3229 10.8412 12.0609 10.4215 12.0609H5.19121C4.7715 12.0609 4.39645 12.3229 4.25216 12.7171L3.29738 15.325C3.23837 15.4947 3.12403 15.6496 2.95436 15.7898C2.7847 15.9299 2.57447 16 2.32366 16H1.46814C0.763075 16 0.27942 15.2899 0.537595 14.6338L6.04658 0.633831C6.19706 0.251419 6.56618 0 6.97713 0H8.64623C9.05741 0 9.42667 0.251682 9.577 0.634387L15.0763 14.6344Z" fill="white"/>
</svg>
