<svg width="18" height="19" viewBox="0 0 18 19" fill="none" xmlns="http://www.w3.org/2000/svg">
<path d="M15.8053 10.2892L15.8053 10.2892C15.3542 9.90221 14.9586 9.56438 14.482 9.31821C14.0126 9.07571 13.4558 8.91858 12.6875 8.91858C11.9191 8.91858 11.3623 9.07571 10.8929 9.31821C10.4163 9.56438 10.0208 9.90221 9.56959 10.2892L9.56591 10.2923C8.61227 11.1103 7.47998 12.0815 5.31239 12.0815C3.14492 12.0815 2.0127 11.1103 1.05911 10.2924L1.05535 10.2892C1.05535 10.2892 1.05535 10.2892 1.05535 10.2892C0.688545 9.97457 0.64624 9.42215 0.96088 9.05535L15.8053 10.2892ZM15.8053 10.2892C16.1721 10.6038 16.7245 10.5615 17.0392 10.1947L17.0392 10.1947M15.8053 10.2892L17.0392 10.1947M17.0392 10.1947C17.3537 9.8279 17.3115 9.2755 16.9446 8.96087L16.9409 8.95768C15.9873 8.13975 14.855 7.16858 12.6875 7.16858C10.5198 7.16858 9.38753 8.13979 8.43388 8.95778L8.43026 8.96088C8.43026 8.96088 8.43025 8.96088 8.43025 8.96088C7.97908 9.34785 7.58353 9.68568 7.10696 9.93185C6.6375 10.1744 6.08074 10.3315 5.31239 10.3315C4.54406 10.3315 3.98733 10.1744 3.51791 9.93187C3.04137 9.6857 2.64586 9.34788 2.19472 8.96089L2.19471 8.96088M17.0392 10.1947L2.19471 8.96088M2.19471 8.96088C1.82794 8.6463 1.27555 8.68849 0.960889 9.05534L2.19471 8.96088Z" fill="#7F8489" stroke="#7F8489" stroke-width="0.5"/>
<path d="M1.05895 3.87369L1.05535 3.87061L1.05895 3.87369ZM1.05895 3.87369C2.01254 4.69168 3.14477 5.66291 5.31239 5.66291M1.05895 3.87369L5.31239 5.66291M5.31239 5.66291C7.48003 5.66291 8.61232 4.69169 9.56597 3.87371M5.31239 5.66291L9.56597 3.87371M9.56597 3.87371L9.56959 3.8706M9.56597 3.87371L9.56959 3.8706M9.56959 3.8706C10.0208 3.48363 10.4163 3.14581 10.8929 2.89963M9.56959 3.8706L10.8929 2.89963M10.8929 2.89963C11.3623 2.65713 11.9191 2.5 12.6875 2.5M10.8929 2.89963L12.6875 2.5M12.6875 2.5C13.4558 2.5 14.0125 2.65712 14.482 2.89962M12.6875 2.5L14.482 2.89962M14.482 2.89962C14.9586 3.14579 15.3541 3.48362 15.8053 3.87061M14.482 2.89962L15.8053 3.87061M15.8053 3.87061C16.1722 4.1853 16.7245 4.14288 17.0391 3.77609L15.8053 3.87061ZM2.19472 2.54231C2.64586 2.9293 3.04138 3.26712 3.51792 3.51329C3.98735 3.75578 4.54408 3.91291 5.31239 3.91291C6.08074 3.91291 6.6375 3.75578 7.10696 3.51327C7.58353 3.2671 7.97908 2.92927 8.43025 2.5423C8.43025 2.5423 8.43026 2.5423 8.43026 2.5423L8.43388 2.5392C9.38753 1.72121 10.5198 0.75 12.6875 0.75C14.8551 0.75 15.9874 1.72121 16.9411 2.53922L16.9446 2.54223C17.3114 2.85678 17.3538 3.40923 17.0391 3.77606L1.05534 3.8706C0.688541 3.55598 0.646241 3.00356 0.960889 2.63676C1.27552 2.26991 1.82794 2.22768 2.19472 2.54231ZM2.19472 2.54231L2.03195 2.73206L2.19472 2.54231Z" fill="#7F8489" stroke="#7F8489" stroke-width="0.5"/>
<path d="M2.20161 15.3862L2.20153 15.3861L2.19472 15.3803L2.19463 15.3802C1.82785 15.0657 1.27552 15.1079 0.960873 15.4747L0.960852 15.4747C0.646247 15.8415 0.688548 16.3939 1.05535 16.7085L1.05892 16.7116C2.01255 17.5296 3.14481 18.5008 5.31236 18.5008C7.48 18.5008 8.61229 17.5296 9.56594 16.7116L9.56956 16.7085C10.0207 16.3215 10.4163 15.9837 10.8929 15.7375C11.3623 15.495 11.9191 15.3379 12.6874 15.3379C13.4558 15.3379 14.0126 15.495 14.482 15.7375C14.9586 15.9837 15.3541 16.3215 15.8053 16.7085L15.8053 16.7085C16.1721 17.0231 16.7245 16.9809 17.0391 16.614L17.0391 16.614C17.3537 16.2472 17.3115 15.6948 16.9446 15.3802L16.9409 15.377C15.9873 14.5591 14.855 13.5879 12.6874 13.5879C10.5198 13.5879 9.3875 14.5591 8.43385 15.3771L8.43023 15.3802C8.43023 15.3802 8.43023 15.3802 8.43023 15.3802C7.97906 15.7672 7.5835 16.105 7.10693 16.3512C6.63747 16.5937 6.08071 16.7508 5.31236 16.7508C4.54408 16.7508 3.98736 16.5937 3.51793 16.3512C3.04382 16.1063 2.64989 15.7707 2.20161 15.3862Z" fill="#7F8489" stroke="#7F8489" stroke-width="0.5"/>
</svg>
